<?xml version="1.0" encoding="UTF-8" standalone="no"?>
<svg
   viewBox="0 0 64 64"
   role="img"
   aria-labelledby="title desc"
   version="1.1"
   id="svg13"
   sodipodi:docname="favicon34.svg"
   inkscape:version="1.4.4 (dcaf3e7d9e, 2026-05-05)"
   xmlns:inkscape="http://www.inkscape.org/namespaces/inkscape"
   xmlns:sodipodi="http://sodipodi.sourceforge.net/DTD/sodipodi-0.dtd"
   xmlns="http://www.w3.org/2000/svg"
   xmlns:svg="http://www.w3.org/2000/svg">
  <sodipodi:namedview
     id="namedview13"
     pagecolor="#ffffff"
     bordercolor="#000000"
     borderopacity="0.25"
     inkscape:showpageshadow="2"
     inkscape:pageopacity="0.0"
     inkscape:pagecheckerboard="0"
     inkscape:deskcolor="#d1d1d1"
     showguides="true"
     inkscape:zoom="12.5"
     inkscape:cx="32"
     inkscape:cy="32"
     inkscape:window-width="1920"
     inkscape:window-height="1008"
     inkscape:window-x="0"
     inkscape:window-y="0"
     inkscape:window-maximized="1"
     inkscape:current-layer="svg13" />
  <title
     id="title">NexoVault favicon</title>
  <desc
     id="desc">Crisp shield and lock favicon with teal circuit accent for NexoVault.</desc>
  <defs
     id="defs2">
    <linearGradient
       id="teal"
       x1="59.580758"
       y1="2.6854308"
       x2="87.509238"
       y2="30.613911"
       gradientTransform="matrix(1.115707,0,0,2.2342784,-34.394667,-4.9199999)"
       gradientUnits="userSpaceOnUse">
      <stop
         offset="0%"
         stop-color="#23d3c6"
         id="stop1" />
      <stop
         offset="100%"
         stop-color="#13b8cf"
         id="stop2" />
    </linearGradient>
    <clipPath
       id="shieldClip">
      <path
         d="M32 5 L47 12 V29 C47 40 41.5 49 32 57 C22.5 49 17 40 17 29 V12 Z"
         id="path2" />
    </clipPath>
  </defs>
  <!-- left half of shield -->
  <path
     d="M 32.08,1.08 0.92,9.48 v 20.4 c 0,13.200001 11.425333,24 31.16,33.6 z"
     fill="#082a63"
     id="path3"
     style="stroke-width:1.57886" />
  <!-- right half of shield -->
  <path
     d="m 32.08,1.08 31.16,8.4 v 20.4 c 0,13.200001 -11.425333,24 -31.16,33.6 z"
     fill="url(#teal)"
     id="path4"
     style="fill:url(#teal);stroke-width:1.57886" />
  <!-- inner shield / lock panel -->
  <g
     clip-path="url(#shieldClip)"
     id="g6"
     transform="matrix(2.5855684,0,0,1.3559323,-50.498198,-5.8311866)">
    <path
       d="m 32,12 8.5,4.2 V 29.5 C 40.5,37.2 36.8,42.8 32,47.4 27.2,42.8 23.5,37.2 23.5,29.5 V 16.2 Z"
       fill="#ffffff"
       id="path5" />
    <path
       d="m 32,14.5 -6.2,3.1 v 11.6 c 0,6 2.8,10.5 6.2,13.9 3.4,-3.4 6.2,-7.9 6.2,-13.9 V 17.6 Z"
       fill="#082a63"
       id="path6" />
  </g>
  <!-- lock shackle -->
  <!-- lock body -->
  <!-- keyhole -->
  <path
     d="M 32.287733,32.28 27.7176,36.6 h 9.140267 z"
     fill="#082a63"
     id="path8"
     style="stroke-width:1.57886" />
  <!-- circuit accents -->
</svg>
